<svg width="139" height="35" viewBox="0 0 139 35" fill="none" xmlns="http://www.w3.org/2000/svg">
<path d="M22.2455 0C18.288 0 14.622 1.52132 12.1804 4.16818L11.9837 4.38463L12.1221 4.62581C14.0317 7.93438 17.909 9.98755 22.2455 9.98755C26.2978 9.98755 29.9492 8.18793 31.9754 5.25042C33.2435 6.83977 33.9869 8.76307 33.9869 10.8286V23.9516C33.9869 24.6751 33.8922 25.3739 33.7173 26.0542C32.3616 24.7122 30.7218 23.6176 28.8779 22.8569V18.0951L22.2382 14.8236L15.6059 18.0951V22.8569C13.7693 23.6238 12.1221 24.7122 10.7665 26.0604C10.5916 25.3801 10.4969 24.6813 10.4969 23.9577V21.4779L13.9734 18.8186L13.2883 18.1755L10.4969 20.3152V17.5694L13.0988 15.6461L12.4282 14.9906L10.4969 16.4192V14.3845L12.3627 13.0055L11.6921 12.3499L10.4969 13.2281V10.5565H9.4765V13.2281L8.28123 12.3437L7.61071 12.9993L9.4765 14.3784V16.413L7.54511 14.9844L6.87459 15.6399L9.4765 17.5632V20.3152L6.6851 18.1755L6 18.8186L9.4765 21.4779V23.9577C9.4765 29.9255 15.1978 34.7863 22.2382 34.7863C29.2787 34.7863 35 29.9317 35 23.9577V10.8348C35.0073 4.85463 29.286 0 22.2455 0ZM28.2511 2.28198C27.34 4.40936 24.9349 5.86884 22.2455 5.86884C19.5562 5.86884 17.151 4.39699 16.24 2.26962C17.049 1.86146 17.9163 1.53988 18.8201 1.31106C19.2646 2.57264 20.6494 3.47554 22.2528 3.47554C23.8562 3.47554 25.2337 2.57264 25.6783 1.31106C26.5893 1.54606 27.4494 1.86764 28.2511 2.2758V2.28198ZM24.6944 1.09461C24.3591 1.98514 23.3825 2.61593 22.2455 2.61593C21.1086 2.61593 20.1319 1.98514 19.7967 1.09461C20.5911 0.952373 21.4074 0.871978 22.2455 0.871978C23.0837 0.871978 23.9 0.952373 24.6944 1.10079V1.09461ZM22.2455 9.12794C18.4119 9.12794 14.9719 7.35924 13.1862 4.48976C13.8349 3.82804 14.571 3.25291 15.3727 2.76435C16.4878 5.12673 19.2063 6.73464 22.2455 6.73464C25.2847 6.73464 27.996 5.12673 29.1184 2.77054C29.9274 3.27146 30.6708 3.84041 31.3048 4.49594C29.5192 7.35924 26.0792 9.12794 22.2455 9.12794ZM16.6336 18.5898L22.2455 15.8193L27.8648 18.5898V22.4797C26.0937 21.8737 24.1915 21.5335 22.2528 21.5335C20.3141 21.5335 18.4046 21.8737 16.6336 22.4797V18.5898ZM22.2455 22.3993C26.5893 22.3993 30.7291 24.1433 33.3893 27.0684C33.0467 27.9466 32.573 28.7753 31.9681 29.5297C29.9638 26.6293 26.2322 24.7926 22.2455 24.7926C18.2589 24.7926 14.5273 26.6293 12.523 29.5297C11.9181 28.7753 11.4443 27.9466 11.1018 27.0684C13.762 24.1433 17.9017 22.3993 22.2455 22.3993ZM16.2473 32.4982C17.1583 30.377 19.5635 28.9113 22.2455 28.9113C24.9276 28.9113 27.3327 30.377 28.2438 32.4982C27.4421 32.9063 26.5821 33.2403 25.671 33.4753C25.2264 32.2075 23.8417 31.2984 22.2382 31.2984C20.6348 31.2984 19.2501 32.2075 18.8055 33.4753C17.8944 33.2403 17.0344 32.9002 16.2327 32.4982H16.2473ZM19.804 33.6917C20.1319 32.8012 21.1159 32.1704 22.2528 32.1704C23.3898 32.1704 24.3664 32.8012 24.7017 33.6917C23.9145 33.834 23.091 33.9144 22.2528 33.9144C21.4147 33.9144 20.5984 33.834 19.804 33.6917ZM29.1184 32.0158C27.996 29.6596 25.2847 28.0455 22.2455 28.0455C19.2063 28.0455 16.4951 29.6534 15.3727 32.0096C14.571 31.5149 13.8349 30.9459 13.2008 30.2966C14.9646 27.4704 18.4702 25.6522 22.2455 25.6522C26.0209 25.6522 29.5192 27.4704 31.2903 30.2966C30.6562 30.9459 29.9201 31.5149 29.1184 32.0096V32.0158Z" fill="#53389E"/>
<path d="M32.4199 13.0735C32.4199 11.9232 31.3194 10.9894 29.9638 10.9894C28.6082 10.9894 27.5076 11.9232 27.5076 13.0735C27.5076 14.2237 28.6082 15.1576 29.9638 15.1576C31.3194 15.1576 32.4199 14.2237 32.4199 13.0735ZM28.528 13.0735C28.528 12.4056 29.1694 11.8552 29.9638 11.8552C30.7582 11.8552 31.3996 12.3994 31.3996 13.0735C31.3996 13.7475 30.7582 14.2918 29.9638 14.2918C29.1694 14.2918 28.528 13.7475 28.528 13.0735Z" fill="#53389E"/>
<path d="M60.625 5.5L63.75 5.525V23.025L60.625 20.625L49.375 11.95V23.025H46.25V5.575L49.375 7.975L60.625 16.65V5.5ZM69.3701 23H66.2451V5.5H69.3701V23ZM77.1104 19.875L86.2854 19.9V23.025H77.4104C76.5354 23.025 75.7104 22.825 74.9604 22.45C73.8604 21.9 72.9604 21 72.4354 19.9C72.0604 19.15 71.8604 18.325 71.8604 17.45V5.525H74.9854V17.75C75.1354 18.85 76.0104 19.725 77.1104 19.875ZM104.029 19.875L105.629 23H102.129L100.529 19.875L96.7043 12.375L92.8793 19.875L91.2793 23H87.7793L89.3793 19.875L96.7043 5.5L104.029 19.875ZM121.514 7.9L124.639 5.5V23H121.514V11.85L118.439 14.2L115.889 16.175L113.339 14.2L110.264 11.85V23H107.139V5.5L110.264 7.9L115.889 12.225L121.514 7.9Z" fill="#53389E"/>
<path d="M45.1483 28.7818H45.7332L46.9031 30.7509H46.9526L48.1224 28.7818H48.7074L47.1832 31.2616V33H46.6724V31.2616L45.1483 28.7818ZM52.7289 30.8909C52.7289 31.3358 52.6485 31.7203 52.4879 32.0443C52.3272 32.3684 52.1069 32.6183 51.8267 32.794C51.5466 32.9698 51.2267 33.0577 50.8669 33.0577C50.5072 33.0577 50.1873 32.9698 49.9071 32.794C49.627 32.6183 49.4066 32.3684 49.246 32.0443C49.0853 31.7203 49.005 31.3358 49.005 30.8909C49.005 30.446 49.0853 30.0616 49.246 29.7375C49.4066 29.4134 49.627 29.1635 49.9071 28.9878C50.1873 28.812 50.5072 28.7241 50.8669 28.7241C51.2267 28.7241 51.5466 28.812 51.8267 28.9878C52.1069 29.1635 52.3272 29.4134 52.4879 29.7375C52.6485 30.0616 52.7289 30.446 52.7289 30.8909ZM52.2346 30.8909C52.2346 30.5257 52.1734 30.2174 52.0512 29.9661C51.9304 29.7148 51.7663 29.5247 51.559 29.3956C51.353 29.2665 51.1223 29.202 50.8669 29.202C50.6115 29.202 50.3802 29.2665 50.1728 29.3956C49.9669 29.5247 49.8028 29.7148 49.6806 29.9661C49.5597 30.2174 49.4993 30.5257 49.4993 30.8909C49.4993 31.2562 49.5597 31.5644 49.6806 31.8157C49.8028 32.067 49.9669 32.2571 50.1728 32.3862C50.3802 32.5153 50.6115 32.5798 50.8669 32.5798C51.1223 32.5798 51.353 32.5153 51.559 32.3862C51.7663 32.2571 51.9304 32.067 52.0512 31.8157C52.1734 31.5644 52.2346 31.2562 52.2346 30.8909ZM56.3559 28.7818H56.8667V31.5747C56.8667 31.8631 56.7988 32.1205 56.6628 32.3471C56.5283 32.5723 56.3381 32.7501 56.0923 32.8805C55.8465 33.0096 55.5582 33.0741 55.2272 33.0741C54.8963 33.0741 54.608 33.0096 54.3622 32.8805C54.1164 32.7501 53.9255 32.5723 53.7896 32.3471C53.655 32.1205 53.5877 31.8631 53.5877 31.5747V28.7818H54.0985V31.5335C54.0985 31.7395 54.1439 31.9228 54.2345 32.0835C54.3251 32.2427 54.4542 32.3684 54.6217 32.4604C54.7906 32.551 54.9924 32.5963 55.2272 32.5963C55.462 32.5963 55.6639 32.551 55.8328 32.4604C56.0017 32.3684 56.1307 32.2427 56.22 32.0835C56.3106 31.9228 56.3559 31.7395 56.3559 31.5335V28.7818ZM57.8868 33V28.7818H59.3121C59.6416 28.7818 59.9121 28.8381 60.1236 28.9507C60.335 29.0619 60.4916 29.215 60.5932 29.41C60.6948 29.605 60.7456 29.8268 60.7456 30.0753C60.7456 30.3238 60.6948 30.5442 60.5932 30.7364C60.4916 30.9287 60.3357 31.0797 60.1256 31.1896C59.9155 31.298 59.6471 31.3523 59.3203 31.3523H58.1669V30.8909H59.3038C59.529 30.8909 59.7103 30.858 59.8476 30.792C59.9863 30.7261 60.0865 30.6328 60.1483 30.5119C60.2114 30.3897 60.243 30.2442 60.243 30.0753C60.243 29.9064 60.2114 29.7588 60.1483 29.6325C60.0851 29.5061 59.9842 29.4086 59.8455 29.34C59.7068 29.27 59.5235 29.2349 59.2956 29.2349H58.3976V33H57.8868ZM59.8723 31.1051L60.9104 33H60.3172L59.2956 31.1051H59.8723ZM66.7871 30.8909C66.7871 31.3358 66.7067 31.7203 66.5461 32.0443C66.3854 32.3684 66.1651 32.6183 65.8849 32.794C65.6048 32.9698 65.2849 33.0577 64.9251 33.0577C64.5654 33.0577 64.2455 32.9698 63.9653 32.794C63.6852 32.6183 63.4648 32.3684 63.3042 32.0443C63.1435 31.7203 63.0632 31.3358 63.0632 30.8909C63.0632 30.446 63.1435 30.0616 63.3042 29.7375C63.4648 29.4134 63.6852 29.1635 63.9653 28.9878C64.2455 28.812 64.5654 28.7241 64.9251 28.7241C65.2849 28.7241 65.6048 28.812 65.8849 28.9878C66.1651 29.1635 66.3854 29.4134 66.5461 29.7375C66.7067 30.0616 66.7871 30.446 66.7871 30.8909ZM66.2928 30.8909C66.2928 30.5257 66.2317 30.2174 66.1094 29.9661C65.9886 29.7148 65.8245 29.5247 65.6172 29.3956C65.4112 29.2665 65.1805 29.202 64.9251 29.202C64.6697 29.202 64.4384 29.2665 64.231 29.3956C64.0251 29.5247 63.861 29.7148 63.7388 29.9661C63.6179 30.2174 63.5575 30.5257 63.5575 30.8909C63.5575 31.2562 63.6179 31.5644 63.7388 31.8157C63.861 32.067 64.0251 32.2571 64.231 32.3862C64.4384 32.5153 64.6697 32.5798 64.9251 32.5798C65.1805 32.5798 65.4112 32.5153 65.6172 32.3862C65.8245 32.2571 65.9886 32.067 66.1094 31.8157C66.2317 31.5644 66.2928 31.2562 66.2928 30.8909ZM68.4121 33L67.2587 28.7818H67.7778L68.6593 32.2173H68.7005L69.5985 28.7818H70.1752L71.0732 32.2173H71.1144L71.996 28.7818H72.515L71.3616 33H70.8343L69.9033 29.6386H69.8704L68.9394 33H68.4121ZM76.4963 28.7818V33H76.002L73.7034 29.6881H73.6622V33H73.1514V28.7818H73.6457L75.9526 32.102H75.9938V28.7818H76.4963ZM77.5184 33V28.7818H80.0642V29.2349H78.0292V30.6602H79.9323V31.1134H78.0292V32.5469H80.0971V33H77.5184ZM80.9848 33V28.7818H82.4101C82.7397 28.7818 83.0102 28.8381 83.2216 28.9507C83.4331 29.0619 83.5896 29.215 83.6912 29.41C83.7928 29.605 83.8436 29.8268 83.8436 30.0753C83.8436 30.3238 83.7928 30.5442 83.6912 30.7364C83.5896 30.9287 83.4338 31.0797 83.2237 31.1896C83.0136 31.298 82.7451 31.3523 82.4183 31.3523H81.2649V30.8909H82.4019C82.6271 30.8909 82.8083 30.858 82.9456 30.792C83.0843 30.7261 83.1845 30.6328 83.2463 30.5119C83.3095 30.3897 83.3411 30.2442 83.3411 30.0753C83.3411 29.9064 83.3095 29.7588 83.2463 29.6325C83.1832 29.5061 83.0822 29.4086 82.9436 29.34C82.8049 29.27 82.6216 29.2349 82.3936 29.2349H81.4956V33H80.9848ZM82.9703 31.1051L84.0084 33H83.4152L82.3936 31.1051H82.9703ZM87.0016 29.8364C86.9769 29.6277 86.8766 29.4656 86.7009 29.3503C86.5251 29.2349 86.3096 29.1773 86.0542 29.1773C85.8674 29.1773 85.704 29.2075 85.564 29.2679C85.4253 29.3283 85.3168 29.4114 85.2385 29.5171C85.1616 29.6228 85.1232 29.743 85.1232 29.8776C85.1232 29.9902 85.15 30.087 85.2035 30.168C85.2584 30.2476 85.3285 30.3142 85.4136 30.3678C85.4987 30.4199 85.588 30.4632 85.6814 30.4975C85.7747 30.5305 85.8605 30.5572 85.9388 30.5778L86.3672 30.6932C86.4771 30.722 86.5993 30.7618 86.7338 30.8126C86.8698 30.8634 86.9995 30.9328 87.1231 31.0207C87.2481 31.1072 87.3511 31.2184 87.4321 31.3543C87.5131 31.4903 87.5536 31.6571 87.5536 31.8548C87.5536 32.0828 87.4939 32.2887 87.3744 32.4727C87.2563 32.6567 87.0833 32.803 86.8554 32.9114C86.6288 33.0199 86.3535 33.0741 86.0294 33.0741C85.7274 33.0741 85.4658 33.0254 85.2447 32.9279C85.025 32.8304 84.852 32.6945 84.7257 32.5201C84.6007 32.3457 84.53 32.1432 84.5135 31.9125H85.0408C85.0545 32.0718 85.1081 32.2036 85.2015 32.308C85.2962 32.4109 85.4157 32.4878 85.5598 32.5386C85.7054 32.5881 85.8619 32.6128 86.0294 32.6128C86.2244 32.6128 86.3995 32.5812 86.5547 32.518C86.7098 32.4535 86.8327 32.3643 86.9233 32.2503C87.014 32.1349 87.0593 32.0004 87.0593 31.8466C87.0593 31.7065 87.0201 31.5926 86.9419 31.5047C86.8636 31.4168 86.7606 31.3454 86.6329 31.2905C86.5052 31.2356 86.3672 31.1875 86.2189 31.1463L85.6999 30.998C85.3704 30.9033 85.1095 30.768 84.9172 30.5923C84.725 30.4165 84.6289 30.1865 84.6289 29.9023C84.6289 29.6661 84.6927 29.4601 84.8204 29.2844C84.9495 29.1072 85.1225 28.9699 85.3395 28.8724C85.5578 28.7736 85.8015 28.7241 86.0706 28.7241C86.3425 28.7241 86.5842 28.7729 86.7956 28.8704C87.0071 28.9665 87.1746 29.0983 87.2982 29.2658C87.4231 29.4334 87.4891 29.6235 87.4959 29.8364H87.0016ZM88.3934 33V28.7818H88.9042V30.6602H91.1534V28.7818H91.6642V33H91.1534V31.1134H88.9042V33H88.3934ZM93.1976 28.7818V33H92.6868V28.7818H93.1976ZM94.2217 33V28.7818H95.647C95.9779 28.7818 96.2484 28.8415 96.4585 28.961C96.67 29.0791 96.8265 29.2391 96.9281 29.4409C97.0297 29.6428 97.0805 29.8679 97.0805 30.1165C97.0805 30.365 97.0297 30.5909 96.9281 30.7941C96.8279 30.9973 96.6727 31.1594 96.4626 31.2802C96.2526 31.3996 95.9834 31.4594 95.6553 31.4594H94.6337V31.0062H95.6388C95.8653 31.0062 96.0473 30.9671 96.1846 30.8888C96.3219 30.8106 96.4214 30.7049 96.4832 30.5717C96.5464 30.4371 96.578 30.2854 96.578 30.1165C96.578 29.9476 96.5464 29.7965 96.4832 29.6634C96.4214 29.5302 96.3212 29.4258 96.1825 29.3503C96.0438 29.2734 95.8598 29.2349 95.6305 29.2349H94.7325V33H94.2217ZM101.841 29.8364C101.817 29.6277 101.716 29.4656 101.541 29.3503C101.365 29.2349 101.149 29.1773 100.894 29.1773C100.707 29.1773 100.544 29.2075 100.404 29.2679C100.265 29.3283 100.157 29.4114 100.078 29.5171C100.001 29.6228 99.963 29.743 99.963 29.8776C99.963 29.9902 99.9898 30.087 100.043 30.168C100.098 30.2476 100.168 30.3142 100.253 30.3678C100.339 30.4199 100.428 30.4632 100.521 30.4975C100.615 30.5305 100.7 30.5572 100.779 30.5778L101.207 30.6932C101.317 30.722 101.439 30.7618 101.574 30.8126C101.71 30.8634 101.839 30.9328 101.963 31.0207C102.088 31.1072 102.191 31.2184 102.272 31.3543C102.353 31.4903 102.393 31.6571 102.393 31.8548C102.393 32.0828 102.334 32.2887 102.214 32.4727C102.096 32.6567 101.923 32.803 101.695 32.9114C101.469 33.0199 101.193 33.0741 100.869 33.0741C100.567 33.0741 100.306 33.0254 100.085 32.9279C99.8649 32.8304 99.6918 32.6945 99.5655 32.5201C99.4406 32.3457 99.3699 32.1432 99.3534 31.9125H99.8806C99.8944 32.0718 99.9479 32.2036 100.041 32.308C100.136 32.4109 100.256 32.4878 100.4 32.5386C100.545 32.5881 100.702 32.6128 100.869 32.6128C101.064 32.6128 101.239 32.5812 101.394 32.518C101.55 32.4535 101.673 32.3643 101.763 32.2503C101.854 32.1349 101.899 32.0004 101.899 31.8466C101.899 31.7065 101.86 31.5926 101.782 31.5047C101.703 31.4168 101.6 31.3454 101.473 31.2905C101.345 31.2356 101.207 31.1875 101.059 31.1463L100.54 30.998C100.21 30.9033 99.9493 30.768 99.7571 30.5923C99.5648 30.4165 99.4687 30.1865 99.4687 29.9023C99.4687 29.6661 99.5326 29.4601 99.6603 29.2844C99.7893 29.1072 99.9623 28.9699 100.179 28.8724C100.398 28.7736 100.641 28.7241 100.91 28.7241C101.182 28.7241 101.424 28.7729 101.635 28.8704C101.847 28.9665 102.014 29.0983 102.138 29.2658C102.263 29.4334 102.329 29.6235 102.336 29.8364H101.841ZM103.233 33V28.7818H105.779V29.2349H103.744V30.6602H105.647V31.1134H103.744V32.5469H105.812V33H103.233ZM110.094 30.1H109.583C109.553 29.9531 109.5 29.824 109.425 29.7128C109.35 29.6016 109.26 29.5082 109.153 29.4327C109.047 29.3558 108.93 29.2981 108.801 29.2597C108.671 29.2212 108.537 29.202 108.397 29.202C108.141 29.202 107.91 29.2665 107.703 29.3956C107.497 29.5247 107.333 29.7148 107.21 29.9661C107.09 30.2174 107.029 30.5257 107.029 30.8909C107.029 31.2562 107.09 31.5644 107.21 31.8157C107.333 32.067 107.497 32.2571 107.703 32.3862C107.91 32.5153 108.141 32.5798 108.397 32.5798C108.537 32.5798 108.671 32.5606 108.801 32.5222C108.93 32.4837 109.047 32.4267 109.153 32.3512C109.26 32.2743 109.35 32.1803 109.425 32.069C109.5 31.9564 109.553 31.8274 109.583 31.6818H110.094C110.056 31.8974 109.986 32.0903 109.884 32.2606C109.782 32.4308 109.656 32.5757 109.505 32.6952C109.354 32.8133 109.184 32.9032 108.996 32.965C108.809 33.0268 108.61 33.0577 108.397 33.0577C108.037 33.0577 107.717 32.9698 107.437 32.794C107.157 32.6183 106.937 32.3684 106.776 32.0443C106.615 31.7203 106.535 31.3358 106.535 30.8909C106.535 30.446 106.615 30.0616 106.776 29.7375C106.937 29.4134 107.157 29.1635 107.437 28.9878C107.717 28.812 108.037 28.7241 108.397 28.7241C108.61 28.7241 108.809 28.755 108.996 28.8168C109.184 28.8786 109.354 28.9692 109.505 29.0887C109.656 29.2068 109.782 29.351 109.884 29.5212C109.986 29.6901 110.056 29.883 110.094 30.1ZM113.688 28.7818H114.198V31.5747C114.198 31.8631 114.13 32.1205 113.994 32.3471C113.86 32.5723 113.67 32.7501 113.424 32.8805C113.178 33.0096 112.89 33.0741 112.559 33.0741C112.228 33.0741 111.94 33.0096 111.694 32.8805C111.448 32.7501 111.257 32.5723 111.121 32.3471C110.987 32.1205 110.919 31.8631 110.919 31.5747V28.7818H111.43V31.5335C111.43 31.7395 111.475 31.9228 111.566 32.0835C111.657 32.2427 111.786 32.3684 111.953 32.4604C112.122 32.551 112.324 32.5963 112.559 32.5963C112.794 32.5963 112.996 32.551 113.164 32.4604C113.333 32.3684 113.462 32.2427 113.552 32.0835C113.642 31.9228 113.688 31.7395 113.688 31.5335V28.7818ZM115.218 33V28.7818H116.644C116.973 28.7818 117.244 28.8381 117.455 28.9507C117.667 29.0619 117.823 29.215 117.925 29.41C118.026 29.605 118.077 29.8268 118.077 30.0753C118.077 30.3238 118.026 30.5442 117.925 30.7364C117.823 30.9287 117.667 31.0797 117.457 31.1896C117.247 31.298 116.979 31.3523 116.652 31.3523H115.499V30.8909H116.635C116.861 30.8909 117.042 30.858 117.179 30.792C117.318 30.7261 117.418 30.6328 117.48 30.5119C117.543 30.3897 117.575 30.2442 117.575 30.0753C117.575 29.9064 117.543 29.7588 117.48 29.6325C117.417 29.5061 117.316 29.4086 117.177 29.34C117.038 29.27 116.855 29.2349 116.627 29.2349H115.729V33H115.218ZM117.204 31.1051L118.242 33H117.649L116.627 31.1051H117.204ZM118.928 33V28.7818H121.474V29.2349H119.439V30.6602H121.342V31.1134H119.439V32.5469H121.507V33H118.928ZM123.696 33H122.395V28.7818H123.754C124.163 28.7818 124.513 28.8663 124.805 29.0352C125.096 29.2027 125.319 29.4437 125.474 29.7581C125.629 30.0712 125.707 30.446 125.707 30.8827C125.707 31.3221 125.628 31.7004 125.472 32.0175C125.315 32.3334 125.087 32.5764 124.788 32.7467C124.489 32.9156 124.125 33 123.696 33ZM122.906 32.5469H123.664C124.012 32.5469 124.301 32.4796 124.531 32.345C124.76 32.2105 124.931 32.0189 125.044 31.7704C125.156 31.5219 125.212 31.2259 125.212 30.8827C125.212 30.5421 125.157 30.249 125.046 30.0032C124.934 29.756 124.768 29.5665 124.547 29.4347C124.326 29.3015 124.051 29.2349 123.721 29.2349H122.906V32.5469Z" fill="#53389E"/>
</svg>
